<?xml version="1.0" standalone="no"?>
<!DOCTYPE svg PUBLIC "-//W3C//DTD SVG 20010904//EN"
 "http://www.w3.org/TR/2001/REC-SVG-20010904/DTD/svg10.dtd">
<svg version="1.0" xmlns="http://www.w3.org/2000/svg"
 width="76.000000pt" height="76.000000pt" viewBox="0 0 76.000000 76.000000"
 preserveAspectRatio="xMidYMid meet">
<metadata>
Created by potrace 1.10, written by Peter Selinger 2001-2011
</metadata>
<g transform="translate(0.000000,76.000000) scale(0.050000,-0.050000)"
fill="#62cb31" stroke="none">
<path d="M525 1348 c-410 -151 -534 -719 -225 -1028 398 -398 1071 -121 1068
440 -1 431 -439 736 -843 588z m152 -326 c5 -38 -1 -45 -27 -35 -18 7 -51 13
-72 13 -33 0 -35 5 -13 41 34 55 103 43 112 -19z m248 18 c33 -38 33 -40 -14
-40 -26 0 -62 -5 -79 -12 -23 -9 -32 -1 -32 27 0 76 70 90 125 25z m-259 -100
c35 -28 56 -34 65 -19 9 15 20 16 33 3 13 -13 33 -7 58 18 80 80 154 49 268
-115 111 -160 119 -241 32 -329 -119 -118 -322 -38 -322 128 0 46 -11 74 -33
82 -49 19 -87 -25 -87 -101 0 -219 -338 -224 -373 -6 -9 61 2 90 84 210 129
189 172 209 275 129z"/>
<path d="M401 707 c-63 -81 -1 -207 102 -207 49 0 137 87 137 135 0 123 -161
171 -239 72z"/>
<path d="M887 708 c-74 -113 63 -253 170 -173 65 48 77 111 34 176 -46 70
-157 69 -204 -3z"/>
</g>
</svg>
